<svg width="93" height="94" viewBox="0 0 93 94" fill="none" xmlns="http://www.w3.org/2000/svg">
<g filter="url(#filter0_d_416_1395)">
<rect x="13" y="9" width="67" height="67" rx="14.8889" fill="white"/>
</g>
<g clip-path="url(#clip0_416_1395)">
<path d="M67.9 30.335V60.7796C67.8815 60.8175 67.8554 60.8529 67.8453 60.8925C67.2857 63.0438 65.9771 64.0593 63.7634 64.0593C54.7241 64.0593 45.6849 64.0626 36.6456 64.0525C35.9479 64.0525 35.2418 64.0095 34.5542 63.8983C29.8192 63.1374 26.1123 59.5198 25.2006 54.8034C24.3091 50.189 26.4326 45.4541 30.5009 42.9868C31.9082 42.1332 33.4359 41.6242 35.1002 41.4152C35.1002 41.2307 35.1002 41.0647 35.1002 40.8995C35.1002 35.5739 35.1019 30.2482 35.0994 24.9226C35.0994 23.5314 35.6353 22.4022 36.8049 21.6463C37.2743 21.3455 37.8523 21.2115 38.3807 21C45.1085 21 51.8372 21 58.565 21C58.897 21.268 59.2551 21.5098 59.556 21.809C62.0747 24.3134 64.5867 26.8245 67.0911 29.3432C67.3902 29.644 67.6312 30.003 67.9 30.335ZM43.4999 61.5372C43.7493 61.5372 43.885 61.5372 44.0206 61.5372C50.6355 61.5372 57.2504 61.5372 63.8654 61.5372C64.9027 61.5372 65.3771 61.0619 65.3771 60.0221C65.3771 50.8143 65.3771 41.6073 65.3771 32.3996C65.3771 32.2512 65.3771 32.1038 65.3771 31.9336H64.8614C62.7455 31.9336 60.6287 31.9336 58.5128 31.9336C57.4207 31.9336 56.9673 31.4743 56.9673 30.3687C56.9673 28.2385 56.9673 26.1082 56.9673 23.978V23.5229C56.7609 23.5229 56.621 23.5229 56.4819 23.5229C50.708 23.5229 44.9341 23.5229 39.1601 23.5229C38.09 23.5229 37.624 23.9872 37.624 25.0549C37.624 30.3527 37.624 35.6497 37.624 40.9475V41.4102C37.7293 41.427 37.7967 41.4388 37.8641 41.4481C39.8157 41.7245 41.582 42.4475 43.1729 43.6154C43.3777 43.7654 43.6735 43.864 43.9279 43.8648C49.0994 43.8792 54.2708 43.8758 59.4414 43.8758C59.8897 43.8758 60.3388 43.8631 60.7863 43.88C61.4427 43.9044 61.9601 44.4075 62.009 45.0446C62.0562 45.6597 61.6331 46.2302 61.0096 46.3659C60.8343 46.4038 60.6481 46.3979 60.466 46.3979C55.7572 46.3996 51.0484 46.3987 46.3396 46.3987H45.797C46.841 47.9922 47.4241 49.6514 47.6525 51.4446H48.2002C52.2787 51.4446 56.3564 51.4446 60.4349 51.4446C60.5613 51.4446 60.6877 51.4395 60.8132 51.448C61.4301 51.4892 61.9272 51.9527 62.0048 52.5561C62.0814 53.1501 61.7048 53.729 61.1031 53.901C60.9059 53.9574 60.6894 53.965 60.4821 53.965C56.3758 53.9684 52.2695 53.9675 48.1632 53.9675H47.6525C47.2548 57.007 45.8989 59.4929 43.4999 61.5372ZM36.3558 43.8758C31.4944 43.8783 27.5339 47.8397 27.5314 52.701C27.5289 57.5623 31.4869 61.5296 36.3457 61.5363C41.2247 61.5439 45.1987 57.5682 45.1919 52.6892C45.1843 47.8296 41.2179 43.8733 36.3558 43.8758ZM59.5046 29.3778H63.3783C62.1042 28.102 60.7905 26.7857 59.5046 25.4981V29.3778Z" fill="#3C41E9"/>
<path d="M51.4529 38.8299C48.4134 38.8299 45.3748 38.8332 42.3353 38.8273C41.3342 38.8256 40.7022 37.9038 41.1084 37.0459C41.3468 36.542 41.7682 36.3061 42.3243 36.3061C44.0467 36.3061 45.77 36.3061 47.4924 36.3061C51.8759 36.3061 56.2595 36.3044 60.643 36.3078C61.65 36.3078 62.2921 37.2086 61.8994 38.0706C61.6525 38.6133 61.2 38.8332 60.611 38.8315C57.558 38.8265 54.505 38.829 51.4512 38.829L51.4529 38.8299Z" fill="#3C41E9"/>
<path d="M34.571 54.5404C34.726 54.3946 34.8381 54.2935 34.9451 54.1873C36.4703 52.663 37.9956 51.1377 39.5208 49.6134C39.8831 49.2519 40.3053 49.0842 40.8176 49.2283C41.3097 49.3665 41.6089 49.6993 41.7142 50.1872C41.8255 50.7021 41.6038 51.1074 41.2449 51.4647C39.627 53.075 38.0149 54.6913 36.4012 56.3058C36.1038 56.6033 35.8147 56.9083 35.5072 57.194C34.9358 57.7248 34.2272 57.7223 33.6685 57.1754C32.8477 56.3724 32.0362 55.5592 31.2323 54.7393C30.6838 54.1798 30.6753 53.4062 31.1902 52.9014C31.7051 52.3967 32.4635 52.4186 33.0289 52.9739C33.5454 53.482 34.046 54.0062 34.571 54.5413V54.5404Z" fill="#3C41E9"/>
</g>
<defs>
<filter id="filter0_d_416_1395" x="0.131745" y="0.385714" width="92.7365" height="92.7365" filterUnits="userSpaceOnUse" color-interpolation-filters="sRGB">
<feFlood flood-opacity="0" result="BackgroundImageFix"/>
<feColorMatrix in="SourceAlpha" type="matrix" values="0 0 0 0 0 0 0 0 0 0 0 0 0 0 0 0 0 0 127 0" result="hardAlpha"/>
<feOffset dy="4.25397"/>
<feGaussianBlur stdDeviation="6.43413"/>
<feComposite in2="hardAlpha" operator="out"/>
<feColorMatrix type="matrix" values="0 0 0 0 0 0 0 0 0 0 0 0 0 0 0 0 0 0 0.29 0"/>
<feBlend mode="normal" in2="BackgroundImageFix" result="effect1_dropShadow_416_1395"/>
<feBlend mode="normal" in="SourceGraphic" in2="effect1_dropShadow_416_1395" result="shape"/>
</filter>
<clipPath id="clip0_416_1395">
<rect width="42.9" height="43.0609" fill="white" transform="translate(25 21)"/>
</clipPath>
</defs>
</svg>
