<svg width="41" height="41" viewBox="0 0 41 41" fill="none" xmlns="http://www.w3.org/2000/svg">
<rect width="41" height="41" rx="4" fill="#F3F3F6"/>
<path d="M28.5 23.25V20.625C28.5 19.7299 28.1444 18.8715 27.5115 18.2385C26.8786 17.6056 26.0201 17.25 25.125 17.25H23.625C23.3266 17.25 23.0405 17.1315 22.8295 16.9205C22.6185 16.7095 22.5 16.4234 22.5 16.125V14.625C22.5 13.7299 22.1444 12.8714 21.5115 12.2385C20.8785 11.6056 20.0201 11.25 19.125 11.25H17.25M17.25 24H24.75M17.25 27H21M19.5 11.25H14.625C14.004 11.25 13.5 11.754 13.5 12.375V29.625C13.5 30.246 14.004 30.75 14.625 30.75H27.375C27.996 30.75 28.5 30.246 28.5 29.625V20.25C28.5 17.8631 27.5518 15.5739 25.864 13.886C24.1761 12.1982 21.8869 11.25 19.5 11.25Z" stroke="#121826" stroke-width="1.5" stroke-linecap="round" stroke-linejoin="round"/>
</svg>
