<svg width="39" height="44" viewBox="0 0 39 44" fill="none" xmlns="http://www.w3.org/2000/svg">
<g clip-path="url(#clip0_434_5780)">
<path d="M4.32048 24.7923C4.31034 24.5886 4.29616 24.4245 4.29616 24.2613C4.29515 17.6864 4.29109 11.1114 4.29717 4.53639C4.2992 2.23732 5.65088 0.517834 7.78174 0.0811234C8.07558 0.0203283 8.38361 0.00512958 8.68556 0.00512958C12.8318 -0.000949922 16.978 6.33281e-05 21.1242 6.33281e-05C21.2408 6.33281e-05 21.3573 0.0122223 21.5468 0.0233681C21.5468 0.226018 21.5468 0.421576 21.5468 0.61612C21.5468 4.62859 21.5457 8.64107 21.5468 12.6535C21.5478 15.4278 23.3544 17.2426 26.1317 17.2466C30.1604 17.2527 34.1891 17.2537 38.2178 17.2395C38.6545 17.2375 38.8267 17.3165 38.8247 17.812C38.8075 24.7244 38.8156 31.6368 38.8115 38.5492C38.8095 40.8888 37.469 42.6113 35.3148 43.045C34.9713 43.1139 34.6116 43.121 34.259 43.121C25.7801 43.125 17.3022 43.1271 8.82336 43.122C6.10988 43.12 4.3073 41.3022 4.29515 38.5745C4.28805 37.0739 4.3144 35.5733 4.28197 34.0737C4.27083 33.5751 4.38431 33.4181 4.91525 33.4211C9.31479 33.4444 13.7143 33.4394 18.1128 33.4323C20.1231 33.4292 21.6906 32.3947 22.3523 30.6651C23.4294 27.8482 21.3846 24.8146 18.356 24.7984C13.8896 24.774 9.42219 24.7913 4.95579 24.7913C4.75617 24.7913 4.55758 24.7913 4.31845 24.7913L4.32048 24.7923ZM21.5518 19.4018C19.6803 19.4018 17.8099 19.4018 15.9384 19.4018C15.0792 19.4018 14.2179 19.3856 13.3597 19.415C12.5764 19.4423 11.9523 20.0391 11.8489 20.797C11.7486 21.5337 12.1691 22.2825 12.8764 22.5277C13.1702 22.63 13.5036 22.6553 13.8187 22.6553C18.9771 22.6624 24.1356 22.6604 29.2941 22.6604C29.4623 22.6604 29.6325 22.6665 29.7987 22.6432C30.4522 22.553 30.9264 22.2115 31.1666 21.5894C31.586 20.5002 30.7856 19.4109 29.5433 19.4058C26.8795 19.3937 24.2167 19.4018 21.5528 19.4018H21.5518ZM21.5559 35.5885C20.7807 35.5885 20.0046 35.5885 19.2294 35.5885C17.3245 35.5885 15.4196 35.5783 13.5147 35.5935C12.4508 35.6027 11.7121 36.4396 11.8479 37.4346C11.9634 38.2817 12.6757 38.8451 13.6626 38.8461C17.6913 38.8501 21.72 38.8481 25.7497 38.8481C26.997 38.8481 28.2443 38.8481 29.4917 38.8481C30.207 38.8481 30.7744 38.5765 31.1027 37.9189C31.6549 36.8115 30.8535 35.5996 29.5464 35.5935C26.8825 35.5804 24.2197 35.5895 21.5559 35.5895V35.5885Z" fill="#B0B2CA"/>
<path d="M37.4259 13.9894H37.0622C33.4418 13.9894 29.8215 13.9894 26.2011 13.9894C25.1463 13.9894 24.7998 13.6459 24.7998 12.6063C24.7998 8.81675 24.7998 5.02821 24.7998 1.36328C28.9815 5.54497 33.2169 9.78036 37.4269 13.9904L37.4259 13.9894Z" fill="#B0B2CA"/>
<path d="M9.7253 27.518C12.3871 27.518 15.0489 27.5099 17.7097 27.521C18.8608 27.5261 19.6085 28.4877 19.3208 29.5536C19.1374 30.2345 18.5244 30.6976 17.733 30.7269C17.2446 30.7452 16.7562 30.732 16.2679 30.732C11.5177 30.732 6.7666 30.732 2.01648 30.732C1.81485 30.732 1.61118 30.734 1.41157 30.7057C0.51282 30.579 -0.0546009 29.8768 0.0041676 28.9761C0.0568566 28.1533 0.71243 27.5281 1.58889 27.5241C4.30136 27.5119 7.01282 27.52 9.7253 27.519V27.518Z" fill="#B0B2CA"/>
</g>
<defs>
<clipPath id="clip0_434_5780">
<rect width="38.8257" height="43.126" fill="white"/>
</clipPath>
</defs>
</svg>
