<svg width="35" height="32" viewBox="0 0 35 32" fill="none" xmlns="http://www.w3.org/2000/svg">
<path fill-rule="evenodd" clip-rule="evenodd" d="M12.7664 1.96924H7.979C6.50945 1.96924 5.31934 3.07155 5.31934 4.42976V27.0665C5.31934 28.4247 6.51086 29.527 7.979 29.527H26.0647C27.5328 29.527 28.7243 28.4247 28.7243 27.0665V16.7323C28.7243 15.4272 28.1639 14.1755 27.1664 13.2526C26.1688 12.3298 24.8158 11.8113 23.405 11.8113H20.7454C20.04 11.8113 19.3635 11.5521 18.8647 11.0906C18.3659 10.6292 18.0857 10.0034 18.0857 9.35079V6.89027C18.0857 5.58513 17.5253 4.33345 16.5277 3.41058C15.5301 2.4877 14.1772 1.96924 12.7664 1.96924ZM22.1426 16.3203C22.2277 16.2154 22.2893 16.0958 22.3237 15.9685C22.3581 15.8413 22.3647 15.709 22.3431 15.5793C22.3214 15.4497 22.272 15.3254 22.1977 15.2136C22.1234 15.1019 22.0257 15.0051 21.9103 14.9288C21.795 14.8525 21.6643 14.7984 21.526 14.7695C21.3877 14.7406 21.2445 14.7376 21.1049 14.7606C20.9653 14.7836 20.8321 14.8322 20.7131 14.9036C20.5941 14.9749 20.4918 15.0675 20.412 15.176L15.8218 21.1206L13.5182 18.9895C13.3165 18.8156 13.0498 18.721 12.7742 18.7255C12.4985 18.73 12.2356 18.8333 12.0407 19.0136C11.8457 19.1939 11.7341 19.4372 11.7292 19.6922C11.7244 19.9471 11.8267 20.1939 12.0146 20.3805L15.2062 23.3331C15.3154 23.4341 15.447 23.5118 15.592 23.561C15.7369 23.6101 15.8917 23.6295 16.0456 23.6178C16.1995 23.606 16.3487 23.5635 16.483 23.493C16.6173 23.4225 16.7334 23.3259 16.8233 23.2097L22.1426 16.3203Z" fill="#3C41E9"/>
<path d="M18.4004 2.38379C19.5728 3.63434 20.2171 5.23477 20.2146 6.89015V9.35066C20.2146 9.6223 20.4529 9.84277 20.7466 9.84277H23.4062C25.1956 9.84047 26.9255 10.4366 28.2773 11.5212C27.6532 9.32535 26.4099 7.32228 24.6745 5.71682C22.9391 4.11137 20.7739 2.96114 18.4004 2.38379Z" fill="#3C41E9"/>
</svg>
