<svg width="45" height="41" viewBox="0 0 45 41" fill="none" xmlns="http://www.w3.org/2000/svg">
<g clip-path="url(#clip0_410_1372)">
<path d="M44.5425 15.7221V10.9256C44.5425 7.35086 41.641 4.44939 38.0662 4.44939H19.7134L16.5898 1.43685C15.6388 0.513658 14.3616 0 13.0358 0H4.44939C1.99216 0 0 1.99216 0 4.44939V17.1173L44.5425 15.7221Z" fill="#C1C9F1"/>
<path d="M37.9343 9.10693H6.60814C2.95856 9.10693 0 12.0655 0 15.7151V33.5612C0 37.2108 2.95856 40.1694 6.60814 40.1694H37.9343C41.5839 40.1694 44.5425 37.2108 44.5425 33.5612V15.7151C44.5425 12.0655 41.5839 9.10693 37.9343 9.10693Z" fill="#3C41E9"/>
</g>
<defs>
<clipPath id="clip0_410_1372">
<rect width="44.5425" height="40.1764" fill="white"/>
</clipPath>
</defs>
</svg>
