<svg width="40" height="40" viewBox="0 0 40 40" fill="none" xmlns="http://www.w3.org/2000/svg">
<path opacity="0.12" d="M21.6666 15.9999C21.6666 15.0665 21.6666 14.5998 21.8483 14.2433C22.0081 13.9297 22.263 13.6747 22.5766 13.5149C22.9332 13.3333 23.3999 13.3333 24.3333 13.3333H32.3333C33.2667 13.3333 33.7334 13.3333 34.0899 13.5149C34.4035 13.6747 34.6585 13.9297 34.8183 14.2433C35 14.5998 35 15.0665 35 15.9999V23.9999C35 24.9333 35 25.4001 34.8183 25.7566C34.6585 26.0702 34.4035 26.3251 34.0899 26.4849C33.7334 26.6666 33.2667 26.6666 32.3333 26.6666H24.3333C23.3999 26.6666 22.9332 26.6666 22.5766 26.4849C22.263 26.3251 22.0081 26.0702 21.8483 25.7566C21.6666 25.4001 21.6666 24.9333 21.6666 23.9999V15.9999Z" fill="#3C41E9"/>
<path d="M35 6.66675H5M35 33.3334H5M15 15.4167H5M15 24.5834H5M24.3333 26.6667H32.3333C33.2668 26.6667 33.7335 26.6667 34.09 26.4851C34.4036 26.3253 34.6586 26.0703 34.8183 25.7567C35 25.4002 35 24.9335 35 24.0001V16.0001C35 15.0667 35 14.6 34.8183 14.2434C34.6586 13.9298 34.4036 13.6749 34.09 13.5151C33.7335 13.3334 33.2668 13.3334 32.3333 13.3334H24.3333C23.3999 13.3334 22.9332 13.3334 22.5767 13.5151C22.2631 13.6749 22.0081 13.9298 21.8483 14.2434C21.6667 14.6 21.6667 15.0667 21.6667 16.0001V24.0001C21.6667 24.9335 21.6667 25.4002 21.8483 25.7567C22.0081 26.0703 22.2631 26.3253 22.5767 26.4851C22.9332 26.6667 23.3999 26.6667 24.3333 26.6667Z" stroke="#3C41E9" stroke-width="3.33333" stroke-linecap="round" stroke-linejoin="round"/>
</svg>
