<svg width="227" height="210" viewBox="0 0 227 210" fill="none" xmlns="http://www.w3.org/2000/svg">
<g clip-path="url(#clip0_233_2125)">
<path d="M129.147 1.8535C124.424 5.02239 113.781 11.2406 108.699 13.8116C105.949 15.1867 103.617 16.3826 103.557 16.4423C102.899 17.0402 108.34 25.8294 111.21 28.8787C118.086 36.3525 125.679 39.7008 136.023 39.7008C143.437 39.7008 147.921 38.7441 153.601 36.0536C162.929 31.6291 173.213 17.6381 174.408 7.83253C174.648 5.73987 174.528 4.90281 173.93 4.66365C172.973 4.3049 169.625 5.08218 160.119 7.89232C154.558 9.50666 153.661 9.9252 153.661 11.0014C153.661 14.1105 153.063 14.8878 151.03 14.5291C145.829 13.6322 141.464 10.5231 135.724 3.707C133.99 1.67413 132.376 0 132.196 0C132.017 0 130.642 0.837065 129.147 1.8535ZM134.767 4.66365C139.312 10.9416 145.051 15.127 150.074 15.9042C152.406 16.263 152.525 16.4423 152.166 17.8773C151.509 20.7472 148.041 25.7696 144.573 28.9983C140.448 32.8249 136.501 34.798 132.316 35.1567C127.832 35.5155 127.712 36.4721 132.137 36.4721C137.159 36.4721 141.464 34.3197 146.486 29.2973C151.15 24.6336 154.319 18.7742 154.737 14.1105L154.977 10.9416L164.005 8.49023C168.968 7.11505 173.093 6.09861 173.213 6.21819C173.332 6.33778 172.734 8.60981 171.897 11.2406C170.283 16.263 166.576 22.4812 162.092 27.6231C150.552 40.6574 126.696 41.8532 114.259 29.8952C111.629 27.3242 105.231 18.4752 105.231 17.3392C105.231 17.1 106.367 16.4423 107.802 15.7846C111.688 14.0507 123.288 7.53358 127.772 4.48428C129.984 2.98952 132.017 1.79371 132.256 1.79371C132.436 1.79371 133.572 3.1091 134.767 4.66365Z" fill="black"/>
<path d="M56.5019 39.5213C53.9907 41.7934 51.061 47.3539 49.9847 52.0773C49.5064 54.17 48.7889 59.4913 48.4302 63.856C47.6529 73.6616 47.055 76.8305 45.2613 81.3148C43.7665 84.962 43.9459 87.2938 45.5602 84.7826C47.9519 81.0158 48.9085 76.7109 49.9249 64.8725C50.4033 59.2522 51.2403 53.2133 51.7784 51.4196C52.9145 47.4137 55.8442 41.7934 57.6379 40.1193L58.9533 38.8637L68.5197 41.1955C82.8694 44.7829 94.4687 48.6693 94.4687 49.9847C94.4687 50.2238 93.5121 51.4196 92.3761 52.6752C89.9247 55.4256 87.5331 59.9099 86.696 63.4973C86.3971 64.9322 85.8589 69.4165 85.5002 73.5421C84.7827 81.9127 83.7663 86.6361 81.554 91.4194C79.7603 95.3655 76.5316 99.79 75.4554 99.8498C74.9771 99.8498 69.1176 98.355 62.3613 96.5015C55.6648 94.7078 49.8652 93.2729 49.5662 93.3924C47.8921 93.9903 51.3001 95.3057 62.4211 98.2952C69.2372 100.149 75.3358 101.644 75.9337 101.644C76.5316 101.644 78.0862 100.209 79.4016 98.4746C84.3642 91.9575 85.8589 87.3536 86.995 75.0368C88.1908 62.0025 89.2072 58.7738 94.0502 52.9742C96.8006 49.6857 96.681 48.7889 93.0338 47.0549C87.9516 44.6035 69.1176 39.2822 62.2418 38.3853C58.5945 37.8472 58.3554 37.907 56.5019 39.5213Z" fill="black"/>
<path d="M193.123 46.9354C192.166 51.4795 189.535 55.0071 182.301 61.3449C176.979 65.9488 174.648 68.7589 176.023 68.7589C176.92 68.7589 189.535 57.0998 191.269 54.768C193.302 51.898 194.917 47.8921 194.917 45.7396V44.4242L198.683 45.4407C200.716 45.9788 207.592 47.6529 213.93 49.0281L225.41 51.6589V54.4092C225.41 58.475 223.436 65.59 220.925 70.4928C219.431 73.5421 217.159 76.5317 213.212 80.6572C207.233 86.8754 205.44 89.6855 204.483 94.3492L203.825 97.2789L200.417 95.6646C197.607 94.2894 181.643 88.4897 180.806 88.4897C180.686 88.4897 180.567 88.8485 180.567 89.3268C180.567 89.8649 182.958 90.9411 187.323 92.4359C190.97 93.6317 196.112 95.545 198.624 96.7408C201.194 97.8768 203.646 98.6541 204.064 98.4747C204.543 98.2953 205.081 97.2789 205.32 96.1429C206.157 91.5988 209.027 86.995 214.528 81.4943C219.132 76.8904 220.327 75.2163 222.599 70.4928C224.094 67.3837 225.589 63.6767 225.888 62.182C226.904 58.0564 227.323 51.8382 226.725 50.9414C226.187 50.1043 198.384 43.647 195.455 43.647C193.96 43.647 193.721 43.9459 193.123 46.9354Z" fill="black"/>
<path d="M161.135 48.8487C153.781 49.6858 149.117 50.4631 144.992 51.4795C140.208 52.6753 131.897 56.3823 129.207 58.5348L127.712 59.6708L130.463 65.59C136.023 77.4883 138.116 86.2177 138.534 99.0128L138.893 108.101L142.241 108.46C150.313 109.357 165.021 106.068 176.92 100.687C179.55 99.5509 180.567 98.7737 180.567 97.9366C180.567 94.9471 174.468 66.6662 172.854 62.3015C170.104 54.768 165.918 48.3106 163.885 48.49C163.347 48.5498 162.151 48.7291 161.135 48.8487ZM167.772 54.5886C171.718 61.5243 172.674 64.8127 176.68 84.9023C178.115 91.9576 179.072 97.9366 178.893 98.116C178.654 98.3551 175.664 99.6107 172.136 100.926C162.45 104.693 154.917 106.487 147.323 106.845L140.687 107.204L140.328 99.1922C139.73 86.0981 137.099 75.276 131.897 64.9323L129.267 59.6708L134.708 57.0998C142.66 53.333 154.379 50.5228 162.929 50.2837C165.26 50.2239 165.38 50.2837 167.772 54.5886Z" fill="black"/>
<path d="M61.5243 59.7308C62.8397 60.5678 76.4719 63.079 76.9502 62.5409C77.7274 61.8234 75.874 61.1059 70.5526 60.1493C64.8725 59.0731 60.1491 58.8937 61.5243 59.7308Z" fill="black"/>
<path d="M195.754 61.5244C196.65 62.9594 206.217 66.9654 208.788 66.9654C211.359 66.9654 209.505 65.8293 203.765 63.7367C195.514 60.7472 195.215 60.6874 195.754 61.5244Z" fill="black"/>
<path d="M60.1491 68.1612C60.8068 68.8189 71.9876 71.1508 74.439 71.1508C75.2761 71.1508 75.9338 70.9116 75.9338 70.5529C75.9338 69.8952 75.2761 69.7158 67.6827 68.4602C61.1058 67.384 59.312 67.3242 60.1491 68.1612Z" fill="black"/>
<path d="M192.286 69.297C194.199 71.2103 205.081 73.8411 205.081 72.4061C205.081 72.0474 204.363 71.6289 203.467 71.4495C202.51 71.2701 199.819 70.6124 197.488 69.9547C192.644 68.6393 191.389 68.46 192.286 69.297Z" fill="black"/>
<path d="M188.34 73.602C188.34 75.037 199.221 78.2657 201.314 77.4884C202.749 76.9503 202.032 76.5318 197.786 75.6349C195.754 75.1566 192.764 74.3793 191.21 73.901C189.476 73.3629 188.34 73.2433 188.34 73.602Z" fill="black"/>
<path d="M57.7574 77.07C58.4151 77.7277 70.433 80.1193 73.1236 80.1193C76.8904 80.1193 73.7215 78.8637 66.9054 77.7277C59.312 76.4123 56.8606 76.2329 57.7574 77.07Z" fill="black"/>
<path d="M28.9983 84.6634C15.127 89.8054 0 96.8009 0 98.0565C0 98.3554 0.896855 99.8502 1.97308 101.285C4.72344 104.873 8.96855 119.043 8.96855 124.663C8.96855 125.62 9.32729 126.158 9.86541 126.158C10.9416 126.158 10.9416 126.278 9.86541 119.82C8.19128 110.134 5.62029 103.019 2.57098 99.7306L1.01644 98.1163L6.33778 95.6649C13.6322 92.2568 23.5574 88.1911 31.1508 85.4407C38.6843 82.7501 38.505 82.6904 42.9295 89.3869C47.6529 96.3823 49.3868 101.883 51.4197 115.695C52.9144 125.739 54.4092 131.599 56.8606 136.382L58.6543 139.97L56.2029 140.926C54.3494 141.703 53.9309 142.062 54.6484 142.421C55.605 142.959 60.3882 141.345 60.3882 140.448C60.3882 140.149 59.611 138.415 58.6543 136.502C55.5452 130.343 54.7679 127.294 52.0176 110.134C50.5826 101.046 48.7889 95.7844 45.2613 90.1044C41.9728 84.8428 39.1627 81.9131 37.4287 81.9131C36.7711 81.9729 32.9445 83.1687 28.9983 84.6634Z" fill="black"/>
<path d="M96.8604 85.62C92.8544 88.3704 90.6422 94.6484 92.0173 99.312C92.8544 102.182 95.8439 105.71 97.8768 106.188C98.8932 106.487 99.1922 106.846 98.953 107.563C98.1757 109.417 97.8768 121.614 98.5943 124.065C99.1922 126.397 101.285 129.147 103.198 130.224C104.155 130.762 103.975 132.555 102.54 137.339C101.644 140.268 108.519 142.002 114.259 140.268C118.086 139.192 121.554 137.159 121.075 136.322C120.896 136.023 119.88 136.262 118.803 136.92C115.336 138.953 110.253 139.969 106.905 139.252C104.274 138.654 103.975 138.475 104.274 137.279C104.514 136.621 104.812 134.887 104.992 133.452C105.351 131.3 105.59 130.941 106.845 130.941C108.699 130.941 111.928 129.566 112.944 128.31C114.319 126.636 113.362 126.636 110.373 128.31C108.28 129.506 107.085 129.805 105.59 129.506C103.258 129.088 100.866 126.636 99.9097 123.826C99.1922 121.674 99.0128 111.988 99.6107 109.058L99.9695 107.324H105.889L111.808 107.264L112.406 109.476C113.123 112.107 115.455 115.695 116.472 115.695C116.89 115.695 117.548 115.037 117.966 114.2C118.803 112.526 121.793 111.808 122.63 113.124C123.587 114.559 123.168 116.651 121.614 118.206C120.418 119.402 119.7 119.641 118.325 119.342C116.591 118.983 115.874 119.94 117.428 120.538C118.086 120.777 118.206 121.853 117.966 125.5C117.608 130.582 118.146 135.724 118.983 135.724C119.282 135.724 119.401 133.153 119.162 129.805C118.744 123.288 119.162 120.777 120.537 120.777C121.016 120.777 122.092 120.059 122.869 119.222C124.603 117.369 124.902 113.602 123.467 112.227C122.75 111.449 122.69 110.732 123.168 108.161C124.543 100.986 123.706 98.7141 119.043 97.1595C116.472 96.3225 115.754 95.6648 113.243 91.9578C109.655 86.6962 106.845 84.7231 102.361 84.4242C99.5509 84.2448 98.5943 84.4242 96.8604 85.62ZM95.0666 95.0071C95.0666 97.5781 95.3656 98.8935 96.2625 100.029C97.6974 101.823 97.7572 102.242 96.5614 102.242C94.3492 102.242 92.6152 96.6812 93.6317 92.7948C94.3492 90.3434 95.0666 91.4795 95.0666 95.0071Z" fill="black"/>
<path d="M32.1672 104.334C23.4976 107.324 20.2091 108.759 20.6277 109.357C20.9864 110.014 40.2389 103.258 40.5379 102.361C40.8368 101.345 40.5976 101.405 32.1672 104.334Z" fill="black"/>
<path d="M38.206 111.509C38.0266 111.628 35.2165 112.465 31.928 113.362C28.6993 114.199 25.5902 115.276 25.1119 115.754C23.9161 116.95 24.7532 116.83 31.8084 115.036C37.3689 113.661 41.2553 112.166 41.2553 111.509C41.2553 111.15 38.5648 111.15 38.206 111.509Z" fill="black"/>
<path d="M101.763 113.362C102.002 114.618 103.079 114.738 103.318 113.422C103.437 112.824 103.138 112.406 102.54 112.406C101.943 112.406 101.644 112.765 101.763 113.362Z" fill="black"/>
<path d="M105.41 114.199C103.736 119.521 103.856 120.418 106.307 119.76C107.922 119.341 108.041 118.385 106.487 118.385C105.47 118.385 105.41 118.146 105.889 116.232C106.726 113.303 106.247 111.509 105.41 114.199Z" fill="black"/>
<path d="M108.938 113.961C109.177 115.216 110.253 115.336 110.493 114.02C110.612 113.422 110.313 113.004 109.715 113.004C109.117 113.004 108.818 113.363 108.938 113.961Z" fill="black"/>
<path d="M184.752 119.999C179.67 122.63 174.588 126.995 172.495 130.582C171.718 131.898 170.343 134.947 169.446 137.339C168.19 140.567 167.473 141.703 166.576 141.823C165.201 142.002 162.331 146.008 158.564 152.944L156.232 157.309L155.873 147.563C155.515 136.561 154.678 132.974 151.688 129.088C148.938 125.44 144.932 123.587 139.85 123.647C134.827 123.647 130.761 125.381 126.277 129.446C122.869 132.496 120.956 135.126 122.989 133.99C123.587 133.632 125.141 132.256 126.457 130.941C129.984 127.294 135.425 124.842 139.73 124.842C150.672 124.842 154.797 132.675 154.857 153.542C154.857 158.923 154.618 160.418 153.063 164.842C152.107 167.593 151.27 170.881 151.27 172.077C151.329 173.87 151.688 173.213 153.362 168.25C154.438 164.902 156.053 160.776 156.95 159.043C160.119 152.824 166.277 142.899 166.994 142.899C167.413 142.899 170.283 143.975 173.392 145.171L179.072 147.443L178.893 151.33C178.713 156.651 175.485 175.664 173.392 184.035C170.462 195.634 166.516 201.733 161.075 203.228C156.83 204.423 151.389 200.537 148.818 194.498C147.862 192.166 147.682 190.014 147.563 176.8C147.443 168.071 147.144 161.315 146.785 160.717C146.367 159.999 146.187 164.663 146.128 175.664C146.128 189.476 145.948 192.585 144.812 198.683C143.317 206.695 143.198 208.609 144.095 207.712C144.453 207.353 145.171 204.663 145.649 201.733C146.187 198.803 146.726 196.053 146.905 195.574C147.024 195.096 147.921 196.113 149.057 197.966C151.569 202.151 155.754 205.081 159.281 205.081C164.244 205.081 169.565 200.118 172.256 193.123C175.544 184.573 179.969 160.657 180.208 150.492C180.387 143.318 181.165 141.464 184.872 139.551C187.562 138.116 196.949 136.322 201.613 136.322C203.825 136.322 205.739 136.083 205.978 135.784C206.456 134.947 201.493 134.349 198.384 134.827C185.948 136.681 182.181 138.295 179.61 142.66C178.474 144.633 177.757 145.231 177.039 144.992C176.501 144.812 174.468 144.035 172.495 143.377L168.848 142.062L171.299 136.382C174.229 129.446 178.056 125.201 184.573 121.793C188.698 119.641 189.954 118.624 189.356 118.026C189.236 117.907 187.144 118.804 184.752 119.999Z" fill="black"/>
<path d="M201.374 119.641C196.531 120.179 191.987 121.554 188.459 123.587C185.051 125.5 185.589 125.919 189.296 124.304C193.661 122.451 200.656 120.777 204.244 120.777C205.978 120.777 207.592 120.478 207.771 120.179C207.951 119.82 207.891 119.581 207.532 119.581C207.233 119.581 206.635 119.461 206.157 119.342C205.739 119.222 203.586 119.342 201.374 119.641Z" fill="black"/>
<path d="M103.437 123.109C102.241 123.946 103.138 124.603 104.454 123.886C105.231 123.407 105.829 123.527 106.666 124.245C107.682 125.201 107.742 125.201 107.563 124.065C107.264 122.75 104.932 122.212 103.437 123.109Z" fill="black"/>
<path d="M206.277 123.527C198.145 124.783 191.329 126.576 191.329 127.533C191.329 127.832 192.047 127.892 193.003 127.653C197.129 126.576 205.559 124.962 207.174 124.962C209.685 124.962 211.718 124.304 211.299 123.706C211 123.168 209.147 123.109 206.277 123.527Z" fill="black"/>
<path d="M22.1224 124.364C22.1224 124.902 22.7203 125.082 31.6888 127.354C39.342 129.267 41.9728 131.359 48.1312 140.208L51.4196 144.992L49.5064 146.486C48.4301 147.324 46.4571 148.998 45.0819 150.193L42.6903 152.406L40.8965 148.22C39.9399 145.889 38.5647 143.318 37.7875 142.48C36.4123 140.986 36.1731 140.926 31.5095 141.344C24.9923 141.883 12.6755 144.334 11.7787 145.291C10.9416 146.128 10.1045 146.247 24.6934 143.736C31.928 142.48 34.9773 142.182 35.7546 142.6C37.1298 143.437 41.3749 152.047 41.4945 154.439C41.7336 157.727 45.3808 173.033 47.1745 178.235C51.4196 190.791 58.4749 200.776 65.3508 203.945C68.6393 205.44 73.5421 205.44 76.412 203.945C78.6243 202.809 82.5106 199.042 84.3641 196.172C85.261 194.797 85.3208 194.917 86.9351 201.075C88.669 207.532 90.2236 210.94 90.2834 208.31C90.2834 207.592 89.3267 203.526 88.1907 199.341C86.9949 195.096 85.1414 186.666 83.9456 180.627C82.8096 174.528 81.7334 169.446 81.4942 169.267C80.7767 168.609 81.9725 179.192 83.3477 185.948L84.7229 192.824L82.2715 196.411C80.8963 198.325 78.6242 200.776 77.2491 201.793C74.977 203.347 74.0802 203.586 70.8515 203.586C67.4435 203.586 66.726 203.347 63.6767 201.254C55.4256 195.515 49.1476 183.437 45.2015 165.32C44.3046 161.374 43.2882 157.308 42.9892 156.232C42.3913 154.439 42.5109 154.14 44.6035 152.346C47.7126 149.536 52.6752 145.889 53.2134 145.889C54.1102 145.889 62.0623 155.575 66.3074 161.733C68.5795 165.021 71.8082 170.343 73.5421 173.512C75.2162 176.74 76.8903 179.371 77.1893 179.371C77.9666 179.371 75.6347 173.811 72.8246 168.968C71.4494 166.696 70.3732 164.483 70.3732 164.125C70.4928 161.673 72.7648 150.732 73.9606 146.785C77.1893 136.621 81.0757 131.599 86.6959 130.403C91.6585 129.327 97.219 131.001 99.79 134.289C101.464 136.382 102.241 135.605 100.627 133.452C98.4746 130.522 94.7078 128.908 89.9844 128.908C79.3417 128.908 74.3193 135.963 70.3134 156.172L69.0578 162.63L65.7095 157.966C61.0459 151.628 54.5287 144.693 53.1536 144.693C52.5557 144.693 52.0176 144.454 52.0176 144.155C52.0176 143.318 46.2777 134.768 43.8861 132.137C40.8965 128.848 37.1895 127.055 29.5962 125.261C22.5409 123.587 22.1224 123.527 22.1224 124.364Z" fill="black"/>
<path d="M6.87592 129.088C6.3378 130.044 7.23466 130.224 13.4529 130.284C16.7413 130.284 21.5843 130.463 24.2151 130.702C27.8025 131.001 28.819 130.881 28.3406 130.403C27.0253 128.968 7.71298 127.832 6.87592 129.088Z" fill="black"/>
<path d="M198.504 129.805C192.764 130.761 193.601 131.539 200.058 131.18C207.114 130.821 208.848 130.522 208.369 129.745C207.951 129.028 203.048 129.087 198.504 129.805Z" fill="black"/>
<path d="M7.05528 134.468C4.24514 134.887 3.10912 135.425 3.76681 136.083C3.94619 136.262 6.45738 136.142 9.38711 135.784C12.257 135.425 15.9043 135.126 17.4588 135.126C19.0134 135.126 20.4483 134.827 20.6277 134.528C21.0462 133.87 11.7189 133.811 7.05528 134.468Z" fill="black"/>
<path d="M12.257 139.072C9.62627 139.551 7.23465 140.208 6.9357 140.507C6.15843 141.285 8.31088 141.285 12.6158 140.567C14.4095 140.268 17.1001 139.85 18.7144 139.611C20.2689 139.431 21.5245 139.013 21.5245 138.654C21.5245 137.877 17.9371 138.056 12.257 139.072Z" fill="black"/>
<path d="M13.1539 147.383C13.1539 147.503 13.692 149.058 14.4095 150.791C16.263 155.634 19.2525 160.238 20.4483 160.238C21.0462 160.238 23.1986 159.222 25.2315 157.966C27.3242 156.711 31.091 154.558 33.662 153.123C37.9071 150.791 39.342 149.476 37.6081 149.476C36.7711 149.476 27.2046 154.857 23.378 157.428C20.807 159.162 20.7472 159.162 19.9102 158.086C18.6546 156.412 16.4423 151.868 15.6053 149.297C15.1867 148.101 14.4693 147.084 13.9909 147.084C13.5126 147.084 13.1539 147.204 13.1539 147.383Z" fill="black"/>
<path d="M68.4659 158.75C68.4659 158.75 70.9233 140.209 77.9965 132.52C85.0697 124.831 98.1817 129.034 99.4074 130.265C99.4074 130.265 95.5151 124.221 96.0293 119.408C96.5435 114.594 97.1533 108.753 97.1533 108.753C97.1533 108.753 89.7752 105.781 89.7752 96.1491C89.7752 86.5169 99.4074 83.4437 99.4074 83.4437C99.4074 83.4437 108.83 80.2688 117.44 95.4316C117.44 95.4316 124.202 96.3524 125.637 101.375C125.637 101.375 125.333 109.159 124.406 111.617C124.406 111.617 128.501 114.588 125.637 120.017C125.637 120.017 123.796 123.091 121.129 123.503V133.034C121.129 133.034 126.971 127.192 128.711 126.373C130.451 125.554 134.755 122.068 141.518 122.582C148.28 123.097 155.963 127.706 157.398 139.796L158.217 151.371C158.217 151.371 163.443 139.999 166.821 140.615C166.821 140.615 170.713 125.452 179.628 122.074C179.628 122.074 180.142 113.674 176.352 104.962C176.352 104.962 159.138 111.826 137.829 110.702C137.829 110.702 137.01 96.7709 136.908 93.1835C136.806 89.5961 135.676 78.8398 129.428 68.2868C129.428 68.2868 111.294 63.9819 89.267 70.5409C89.267 70.5409 91.4194 90.6185 77.7932 106.092L51.1566 97.9966C51.1566 97.9966 54.2298 106.296 54.0266 111.42C53.8233 116.544 56.0774 128.221 59.0489 133.65C62.0205 139.079 62.3255 139.694 63.7604 141.333L56.4839 145.225C56.4839 145.225 68.161 157.01 68.4719 158.75H68.4659Z" fill="#7B7FFF"/>
</g>
<defs>
<clipPath id="clip0_233_2125">
<rect width="227" height="209.2" fill="white"/>
</clipPath>
</defs>
</svg>
