<svg width="24" height="24" viewBox="0 0 24 24" fill="none" xmlns="http://www.w3.org/2000/svg">
<path d="M15.75 5.75C15.75 6.74456 15.3549 7.69839 14.6516 8.40165C13.9484 9.10491 12.9945 9.5 12 9.5C11.0054 9.5 10.0516 9.10491 9.34833 8.40165C8.64506 7.69839 8.24998 6.74456 8.24998 5.75C8.24998 4.75544 8.64506 3.80161 9.34833 3.09835C10.0516 2.39509 11.0054 2 12 2C12.9945 2 13.9484 2.39509 14.6516 3.09835C15.3549 3.80161 15.75 4.75544 15.75 5.75ZM4.50098 19.868C4.53311 17.9004 5.33731 16.0242 6.74015 14.644C8.14299 13.2639 10.0321 12.4905 12 12.4905C13.9679 12.4905 15.857 13.2639 17.2598 14.644C18.6626 16.0242 19.4668 17.9004 19.499 19.868C17.1464 20.9468 14.5881 21.5035 12 21.5C9.32398 21.5 6.78398 20.916 4.50098 19.868Z" stroke="#667085" stroke-width="1.5" stroke-linecap="round" stroke-linejoin="round"/>
</svg>
