<svg width="40" height="40" viewBox="0 0 40 40" fill="none" xmlns="http://www.w3.org/2000/svg">
<path opacity="0.12" d="M16.6666 20C20.8088 20 24.1666 16.6421 24.1666 12.5C24.1666 8.35786 20.8088 5 16.6666 5C12.5245 5 9.16663 8.35786 9.16663 12.5C9.16663 16.6421 12.5245 20 16.6666 20Z" fill="#3C41E9"/>
<path d="M20 25.8333H12.5C10.1741 25.8333 9.01113 25.8333 8.0648 26.1204C5.93413 26.7667 4.26677 28.4341 3.62044 30.5648C3.33337 31.5111 3.33337 32.6741 3.33337 35M31.6667 35V25M26.6667 30H36.6667M24.1667 12.5C24.1667 16.6421 20.8088 20 16.6667 20C12.5246 20 9.16671 16.6421 9.16671 12.5C9.16671 8.35786 12.5246 5 16.6667 5C20.8088 5 24.1667 8.35786 24.1667 12.5Z" stroke="#3C41E9" stroke-width="3.33333" stroke-linecap="round" stroke-linejoin="round"/>
</svg>
